<?xml version="1.0" standalone="no"?><!DOCTYPE svg PUBLIC "-//W3C//DTD SVG 1.1//EN" "http://www.w3.org/Graphics/SVG/1.1/DTD/svg11.dtd"><svg t="1659787300007" class="icon" viewBox="0 0 1024 1024" version="1.1" xmlns="http://www.w3.org/2000/svg" p-id="2414" xmlns:xlink="http://www.w3.org/1999/xlink" width="200" height="200"><defs><style type="text/css"></style></defs><path d="M874.496 385.109333c-93.141333-39.68-218.282667-65.28-352-72.32-21.333333-1.28-42.112-1.706667-61.866667-1.706666 98.901333-120.746667 204.885333-201.813333 274.645334-204.373334 13.738667-0.554667 25.386667 2.346667 34.688 8.362667 30.122667 19.541333 38.613333 75.434667 23.253333 153.173333-1.706667 10.666667 5.12 21.034667 15.36 23.04 10.666667 2.133333 20.906667-4.693333 23.04-15.36 19.2-97.28 5.12-164.096-40.106667-193.621333-16.213333-10.581333-35.84-15.573333-57.6-14.762667-87.466667 3.285333-210.773333 98.133333-323.84 244.053334-49.237333 1.493333-95.573333 5.546667-137.898666 12.245333-27.562667-123.605333-16.64-212.352 25.344-233.685333 5.888-3.114667 12.16-4.693333 19.498666-5.290667 29.738667-2.304 70.826667 16.853333 115.626667 54.186667 8.277333 6.826667 20.736 5.973333 27.562667-2.56a19.541333 19.541333 0 0 0-2.56-27.52C403.882667 64.426667 354.304 42.666667 313.770667 45.653333a95.744 95.744 0 0 0-34.261334 9.386667c-50.773333 25.898667-71.253333 99.285333-58.453333 206.421333 2.986667 22.186667 6.826667 45.312 12.373333 69.12C93.44 358.570667 4.266667 414.634667 0.426667 485.205333c-2.56 49.92 36.906667 97.450667 114.346666 137.472a19.626667 19.626667 0 1 0 17.92-34.816C70.826667 556.032 37.546667 520.106667 39.552 487.253333c2.133333-46.08 75.605333-93.44 203.093333-118.613333 11.52 42.410667 26.453333 86.698667 44.8 131.84-43.434667 80.554667-74.922667 159.872-91.178666 230.4-23.893333 105.173333-11.093333 180.053333 36.693333 211.114667 15.36 9.984 33.28 14.933333 53.205333 14.933333 39.893333 0 88.192-19.626667 142.805334-58.538667a19.541333 19.541333 0 1 0-22.613334-31.829333c-65.877333 47.061333-121.344 62.805333-151.978666 42.794667-32.426667-21.12-39.509333-82.901333-19.626667-169.642667 13.653333-59.136 38.698667-125.013333 72.874667-192.853333 8.533333 18.688 17.493333 37.376 26.88 56.021333 60.8 119.296 135.253333 223.018667 209.493333 292.053333 59.136 55.04 114.090667 83.754667 159.36 83.754667 14.933333 0 29.013333-3.2 41.642667-9.514667 48.853333-24.96 69.973333-94.293333 59.648-195.2-9.557333-94.421333-45.226667-209.493333-100.437334-324.266666a19.626667 19.626667 0 1 0-35.413333 16.896c114.773333 239.018667 122.88 434.773333 58.453333 467.626666-67.84 34.688-231.424-100.48-357.973333-349.013333-14.506667-27.946667-27.178667-55.466667-38.4-82.346667 14.506667-25.941333 29.866667-52.053333 46.72-78.08 16.853333-25.770667 34.389333-50.688 52.224-74.453333h16.810667c23.04 0 48.042667 0.426667 73.984 2.048 278.613333 14.634667 468.266667 109.226667 464.384 184.917333-1.706667 32.64-39.424 65.621333-103.466667 90.453334a19.797333 19.797333 0 0 0-11.093333 25.429333 19.413333 19.413333 0 0 0 25.301333 11.178667c81.28-31.573333 125.866667-74.922667 128.426667-125.013334 2.986667-56.746667-49.92-111.36-149.333334-153.6v-0.426666zM344.746667 403.2c-11.52 17.706667-22.186667 35.285333-32.597334 53.077333a1009.493333 1009.493333 0 0 1-30.848-94.506666c30.421333-4.693333 63.36-8.106667 98.56-10.24-11.946667 16.64-23.637333 33.877333-34.986666 51.626666v-0.426666z m167.466666 50.133333a58.666667 58.666667 0 1 0 0 117.333334 58.666667 58.666667 0 1 0 0-117.333334z" p-id="2415" fill="#3b82f6"></path></svg>