<svg t="1662476987830" class="icon" viewBox="0 0 1024 1024" version="1.1" xmlns="http://www.w3.org/2000/svg" p-id="2154" id="mx_n_1662476987834" width="200" height="200"><path d="M526.6 512.64m-389.4 0a389.4 389.4 0 1 0 778.8 0 389.4 389.4 0 1 0-778.8 0Z" fill="#6366F1" p-id="2155" data-spm-anchor-id="a313x.7781069.0.i24" class="selected"></path><path d="M127.64 668.11a8.3 8.3 0 0 1-7.74-5.32 419.5 419.5 0 0 1 155.67-496.68 8.29 8.29 0 1 1 9.34 13.71 402.91 402.91 0 0 0-149.53 477 8.3 8.3 0 0 1-7.74 11.27zM511.18 931.63A417.84 417.84 0 0 1 207 800.79a8.29 8.29 0 1 1 12-11.41C295.83 870.42 399.58 915 511.18 915c221.89 0 402.41-180.52 402.41-402.41S733.07 110.23 511.18 110.23a404.83 404.83 0 0 0-88.43 9.77 8.29 8.29 0 1 1-3.63-16.18 421.44 421.44 0 0 1 92.06-10.15 419.1 419.1 0 0 1 163.1 805.03 416.38 416.38 0 0 1-163.1 32.93z" fill="#070707" p-id="2156"></path><path d="M358.07 174.75c14.58 29.1 30 60.49 38 92.31 8.11 32.45-46.51 38.33-65.34 49.15-36 20.68-60.16 55.58-74.84 94.71-22.7 60.52-30.22 139.09-13.13 201.23 3.22 11.71 9 26.75 7.23 39.34a29.47 29.47 0 0 1-5.67 13.51c-19.83 26.94-42 41.7-72.89 59.05-7 4-44.05 13.72-43.26 19.66s60.06 6.68 77.32 9.69c25.4 4.43 50.91 8.32 76.58 10.7 78.16 7.25 150.16-9 225.15-30.54l171.12-309.7c3.51-13.16 6.55-26.48 9.2-39.85 3.26-16.48 11.23-41.61 2.19-57-2.45-4.17-6-7.48-9.7-10.57-26.34-22.32-57.81-36.66-89.3-49.39-36.68-14.84-67.36-42.83-101.14-63.28A720.77 720.77 0 0 0 411.85 163c-12.26-5.51-24.76-10.39-37-15.81-7.14-3.15-35.86-22-43.55-16.75-5.67 3.84 22.91 36.62 26.77 44.31z" fill="#070707" p-id="2157"></path><path d="M304.45 770.47c-13.89 0-27.85-0.62-42-1.92-23.79-2.2-48.74-5.63-80.91-11.13-5.64-1-13.53-1.73-21.88-2.54-30.78-3-40.82-4.62-42-12.64-1.27-9 9.4-13 18.81-16.6 2.78-1.05 5.41-2 7.23-3 28.65-14.55 54.83-36.76 75.73-64.21 2.67-3.51 5.33-7.25 5.88-11 1.12-7.64-2.58-17.5-5.84-26.19-1.48-3.93-2.87-7.64-3.9-11.24-8.9-31-12.31-67.19-9.83-104.71 2.38-36.14 10-71.8 22.12-103.11 17.37-45 45.38-79.2 81-98.89 5.51-3 13-5.6 21-8.29 26.34-8.93 44.63-16.63 40-34.44-8.68-33.21-22.62-65.32-35.12-92.36-0.22-0.47-0.67-1.33-1.26-2.48-11.05-21.47-15.52-34.1-7.5-39.36 9.64-6.33 22.85-0.21 31.59 3.83 1.25 0.58 2.42 1.12 3.45 1.56 6 2.56 12.11 5.05 18.06 7.46 6.87 2.79 14 5.67 20.92 8.69a780.52 780.52 0 0 1 82.38 41.92c12.94 7.58 25.59 16.26 37.82 24.65 21.47 14.72 43.67 29.95 67.76 39.41 32.84 12.9 67.14 28 95.51 51.27 3.91 3.2 8.35 7.06 11.52 12.24 9.3 15.22 4.39 36.59 0.45 53.75-0.68 3-1.32 5.75-1.84 8.29-2.86 14.13-6.1 27.85-9.64 40.78l-0.2 0.72-0.37 0.65L503.3 737.37l-2.36 0.65c-70.52 19.39-132.65 32.45-196.49 32.45zM133.27 739.7c7.12 1.45 19.36 2.64 27.52 3.43 8.57 0.83 16.67 1.62 22.73 2.65 31.86 5.45 56.53 8.84 80 11 76.71 7.08 148.31-6.63 231.93-29.51l177.29-310.85c3.39-12.46 6.5-25.68 9.26-39.29 0.55-2.7 1.2-5.56 1.9-8.6 3.46-15.07 7.77-33.83 1-44.95-2.2-3.6-5.76-6.67-8.92-9.25-25.6-21-55.43-34.92-92.34-49.42-25.35-10-48.11-25.57-70.12-40.66-12.06-8.27-24.53-16.82-37.11-24.2a768.74 768.74 0 0 0-81.13-41.28c-6.81-3-13.84-5.82-20.64-8.58-6-2.43-12.2-4.95-18.28-7.55-1.13-0.48-2.39-1.07-3.76-1.7-5.07-2.35-14.12-6.54-18.85-5.25 0.49 5.26 7.18 18.75 10.22 24.65 0.71 1.39 1.19 2.31 1.48 2.93 12.72 27.5 26.92 60.22 35.83 94.33 3.49 13.37-1 24.6-13.29 33.38-9.63 6.86-22.75 11.31-34.32 15.24-7.44 2.52-14.48 4.91-19.06 7.44-33.15 18.34-59.32 50.43-75.69 92.81-24.21 62.7-28.9 141.32-12 200.29 0.9 3.14 2.22 6.64 3.61 10.35 3.77 10 8 21.41 6.47 32.07-1 6.52-4.72 11.9-8.17 16.43-22 28.87-49.56 52.24-79.78 67.59a88.37 88.37 0 0 1-8.4 3.49c-1.97 0.77-4.93 1.89-7.38 3.01z" fill="#070707" p-id="2158"></path><path d="M398 381.94a321.63 321.63 0 0 0-12.58 30.88c-15 42.95-21.89 88.36-28.29 133.5-2.06 14.55-4 29.9 1.27 43.52 7.06 18.26 26.35 27.1 31.82 46.42 2.52 8.92 1.75 18.43 1.6 27.73-0.11 7 0.14 14.15-1.1 21.08-3.63 20.44-33.72 4.69-46.52 4.75-10.42 0.05-21.53 3.22-28.11 11.59-8 10.11-7.15 25-2.66 37.1 6.94 18.73 21.88 34.1 40.05 41.19a67.77 67.77 0 0 0 32.89 4c5.71-0.71 12-1.91 17.29-4.48 1.91-0.94 10-7.88 11.37-7.78 9.68 0.72 18.2 9.33 26.15 14.11a151.91 151.91 0 0 0 32.78 14.53c23.87 7.52 48.24 5.94 73.14 6.07 50.32 0.27 95.14-4.73 141.24-25.78 32.8-15 66.3-36.18 92.75-61 15-14 31.77-29.46 36.67-49.66 4.3-17.69 2.09-31.88-4.37-45.59-5.84-12.37-20.33-17.25-22.68-31.82-2.5-15.52-1.78-31.87-2.75-47.45-3-47.33-17-93.63-39.07-135.11-11.34-21.35-23.73-43.2-39.34-61.45-7.92-9.26-35.09-46.53-47.17-37.38-10.53 8 6.45 40.46-28.3 43.54-18.52 1.64-45.76-10.27-60.77-19.55-17-10.5-34.21-20.75-53.42-29.16-12.78-5.6-30-15.72-44.65-12.51-22 4.81-41.47 31-53.94 48.53a261.24 261.24 0 0 0-23.3 40.18z" fill="#C5E8C8" p-id="2159"></path><path d="M398 381.94a321.63 321.63 0 0 0-12.58 30.88c-15 42.95-21.89 88.36-28.29 133.5-2.06 14.55-4 29.9 1.27 43.52 7.06 18.26 26.35 27.1 31.82 46.42 2.52 8.92 1.75 18.43 1.6 27.73-0.11 7 0.14 14.15-1.1 21.08-3.63 20.44-25 6.36-37.79 6.43-10.42 0.05-16.94 3.43-23.5 11.82-6 7.61-6.63 19.07-4.52 29.81 3.85 19.6 16.92 31.34 33.66 41.35 10.27 6.15 16.71 10.61 27.79 9.23 5.71-0.71 12-1.91 17.29-4.48 1.91-0.94 10-7.88 11.37-7.78 9.68 0.72 18.2 9.33 26.15 14.11a151.91 151.91 0 0 0 32.78 14.53c23.87 7.52 48.24 5.94 73.14 6.07 50.32 0.27 95.14-4.73 141.24-25.78 32.8-15 66.3-36.18 92.75-61 15-14 31.77-29.46 36.67-49.66 4.3-17.69 2.09-31.88-4.37-45.59-5.84-12.37-20.33-17.25-22.68-31.82-2.5-15.52-1.78-31.87-2.75-47.45-3-47.33-17-93.63-39.07-135.11-11.34-21.35-23.73-43.2-39.34-61.45-7.92-9.26-35.09-46.53-47.17-37.38-10.53 8 6.45 40.46-28.3 43.54-18.52 1.64-45.76-10.27-60.77-19.55-17-10.5-34.21-20.75-53.42-29.16-12.78-5.6-30-15.72-44.65-12.51-22 4.81-41.47 31-53.94 48.53A261.24 261.24 0 0 0 398 381.94z" fill="#EFB7A8" p-id="2160"></path><path d="M559.93 818.65h-3c-30.35-0.23-56-3.7-78.48-10.6a167.42 167.42 0 0 1-35.31-15.23c-2.53-1.48-5.07-3.26-7.53-5-5.19-3.64-10.54-7.39-15.72-8.3-1.27 0.83-3.35 2.36-4.59 3.28a40.27 40.27 0 0 1-5.61 3.79c-6.71 3.17-14.49 4.36-19.76 5a77.71 77.71 0 0 1-82-49.36c-6.32-16.44-5-32.56 3.6-43.13 9.68-11.93 25.29-13.74 33.72-13.76h0.05c4.42 0 9.93 1.33 15.75 2.74 8.32 2 19.72 4.77 24.27 1.81 0.79-0.51 1.89-1.52 2.4-4.35a92 92 0 0 0 1-16v-4.27c0-1.42 0.06-3 0.1-4.5 0.19-7.69 0.38-15-1.59-21.62-2.62-8.9-9-15.54-15.71-22.56-6.52-6.82-13.32-13.91-17.22-23.59-6.27-15.63-3.79-32.91-1.79-46.79 7-48.93 14.1-92.88 29.31-135.28A323 323 0 0 1 395 379.31a265.77 265.77 0 0 1 24.62-41.22c17.38-23.61 36.53-46.09 59.45-50.93 14.57-3.05 30.32 4.16 43 9.94 2.44 1.12 4.75 2.17 6.92 3.09 21 8.93 40 20.07 56.25 29.82 17.23 10.35 43.06 21.54 59.17 19 2.76-0.43 4.37-10.94 5.33-17.22 1.8-11.72 3.83-25 14.15-28.93 15.53-5.9 37.22 17.63 56.32 40.16 1.45 1.71 2.67 3.15 3.6 4.2a340.19 340.19 0 0 1 43 61.16c23.65 43 37.84 90.87 41 138.47 0.16 2.33 0.29 4.69 0.43 7 0.76 13 1.55 26.49 5.79 38.46 2.33 6.58 6.72 11.1 11.38 15.88 4.33 4.45 8.81 9.06 12 15.54 7.06 14.44 8.1 32.43 2.85 49.38a81.9 81.9 0 0 1-13.91 26.87c-31.37 39.05-72.1 69.31-121 89.95-44.52 18.84-94.72 28.72-145.42 28.72z m-141-51.11h0.52c8.84 0.66 16.37 5.93 23 10.59 2.37 1.66 4.6 3.22 6.71 4.46A155.71 155.71 0 0 0 482 796.75c21.34 6.56 45.91 9.85 75.1 10.08h3c105.11 0 198.66-41.51 257-114.16a70 70 0 0 0 11.83-23c4.31-13.89 3.49-29.1-2.18-40.69-2.34-4.79-6-8.53-9.84-12.5-5.08-5.23-10.85-11.15-14-20.18-4.8-13.55-5.64-27.86-6.45-41.71-0.14-2.33-0.27-4.65-0.43-6.95-3.08-45.89-16.77-92.08-39.59-133.56a328.42 328.42 0 0 0-41.49-59c-1-1.1-2.24-2.6-3.76-4.38-5.48-6.46-14.64-17.27-23.75-25.56-14-12.72-18.85-11.39-19.36-11.2-3.88 1.47-5.49 12-6.67 19.67-1.82 11.88-3.88 25.34-15.2 27.1-24.79 3.86-60.22-16.47-67.07-20.58-15.88-9.54-34.52-20.44-54.8-29.07-2.3-1-4.68-2.07-7.2-3.22-11.67-5.33-24.89-11.38-35.65-9.13-21.65 4.53-42.35 32.78-52.3 46.36a253.92 253.92 0 0 0-23.52 39.38 311 311 0 0 0-12.73 30.43c-14.84 41.36-21.79 84.69-28.73 133-1.8 12.48-4 28 1.06 40.71 3 7.59 8.76 13.56 14.81 19.88 7.41 7.74 15.07 15.74 18.51 27.4 2.49 8.44 2.27 17 2.07 25.25 0 1.46-0.07 2.92-0.09 4.38s0 2.76 0 4.14a102.28 102.28 0 0 1-1.15 18c-1 5.43-3.53 9.52-7.58 12.15-8.82 5.75-21.93 2.57-33.5-0.23-5.12-1.24-10-2.41-13-2.41-10.79 0-19.75 3.45-24.58 9.39-6.92 8.53-5.44 21.83-1.75 31.44a65.9 65.9 0 0 0 69.61 41.86c4.43-0.52 10.89-1.49 16-3.89 0.61-0.35 2.47-1.73 3.71-2.65 5.67-4.16 7.92-5.76 10.58-5.76z" fill="#070707" p-id="2161"></path><path d="M373.82 765.62a5.91 5.91 0 0 1-5.8-7s1.33-7.92-2.89-19.95c-2.95-8.39-22-4-22.23-3.92a5.91 5.91 0 0 1-2.9-11.49c11-2.83 31-3.6 36.32 11.45s3.55 25 3.34 26.14a5.91 5.91 0 0 1-5.84 4.77zM420.94 442.4a5.91 5.91 0 0 1-5.46-8.16 398.45 398.45 0 0 1 28.05-53.85c23.24-36.88 45.57-54.94 66.38-53.74 47.64 2.79 68.22 48 69.08 50a5.91 5.91 0 0 1-10.8 4.79c-0.18-0.4-18.62-40.59-59-43-33.15-2-71 71.74-82.82 100.3a5.91 5.91 0 0 1-5.43 3.66zM686.79 374.08a5.91 5.91 0 0 1-5.85-5.14c-0.59-4.55-3.1-27.69 5.72-36.49a12.44 12.44 0 0 1 10.82-3.57 5.91 5.91 0 0 1-1.56 11.71c-0.61-0.08-0.71 0-0.91 0.23-3.07 3.05-3.69 16.22-2.35 26.6a5.91 5.91 0 0 1-5.1 6.62 6 6 0 0 1-0.77 0.04zM722.93 648.85h-0.29a5.91 5.91 0 0 1 0-11.81h0.2c8.1 0 21.22-2.11 24-6.68 0.3-0.5 1.23-2-0.9-6.09-2.34-4.46-4.89-5.36-6.61-5.65-7.41-1.24-18.19 7-21.39 10a5.91 5.91 0 0 1-8.11-8.59c1.69-1.6 16.92-15.51 31.42-13.1 4.47 0.74 10.72 3.4 15.14 11.81 4.33 8.25 2.68 14.19 0.53 17.72-7.05 11.69-28.92 12.39-33.99 12.39z" fill="#070707" p-id="2162"></path><path d="M591.73 500.9c9.27 60.78-0.81 114.79-34 118.18-36.6 3.73-58.34-41.15-67.61-101.93s9.88-114.48 34-118.15c27.2-3.25 58.34 41.12 67.61 101.9z" fill="#FFFFFF" p-id="2163"></path><path d="M553.41 625.21c-34.12 0-58.58-37.75-69.16-107.17-9.28-60.82 9.31-120.36 39-124.91h0.2c15.64-1.85 32 8.64 46.12 29.53 13.52 20 23.47 47.51 28 77.38 7.39 48.43 2.35 89.55-13.47 110-6.88 8.89-15.57 13.93-25.81 15a48.24 48.24 0 0 1-4.88 0.17z m-28.49-220.38c-18.11 2.94-38.23 50.9-29 111.43 4.74 31.06 12.61 56.29 22.76 73 10.6 17.42 23.53 25.48 38.41 24 7-0.71 12.78-4.13 17.67-10.45 13.67-17.65 17.93-56.34 11.13-101-4.3-28.18-13.58-53.95-26.14-72.55-11.3-16.76-23.99-25.65-34.83-24.43z" fill="" p-id="2164"></path><path d="M493.58 455.65s19.41 97 60 91.49 37.92-52.64 37.92-52.64-23.42-76.63-46.8-89.61-43.59 15.47-43.59 15.47z" fill="#070707" p-id="2165"></path><path d="M550.09 553.29c-18 0-33.88-16-47.18-47.51a286.33 286.33 0 0 1-15.13-49 5.91 5.91 0 0 1 0-2.39l7.54-35.29a5.91 5.91 0 0 1 1-2.19c8.05-11.33 29.13-29.51 51.27-17.22 24.74 13.74 47.11 85 49.58 93a5.89 5.89 0 0 1 0.25 1.39 75.14 75.14 0 0 1-4.05 26.54c-6.54 18.53-20 29.69-39 32.29a31.68 31.68 0 0 1-4.28 0.38z m-50.48-97.61c5.46 26.26 24.86 89.46 53.18 85.6 14.47-2 24.37-10.23 29.41-24.52a63.85 63.85 0 0 0 3.42-21.27c-6.57-21.24-26.54-75.85-43.79-85.43-16.44-9.13-31.83 8.55-35.22 12.83z" fill="#070707" p-id="2166"></path><path d="M537.090964 454.141116a22.19 12.99 74.66 1 0 25.05441-6.872915 22.19 12.99 74.66 1 0-25.05441 6.872915Z" fill="#FFFFFF" p-id="2167"></path><path d="M485.4 423.48l12.27 10.77M497.66 440.15a5.88 5.88 0 0 1-3.89-1.47l-12.27-10.76a5.91 5.91 0 0 1 7.8-8.92l12.27 10.77a5.91 5.91 0 0 1-3.9 10.35zM500.18 391.91l8.82 16.51M509 414.33a5.91 5.91 0 0 1-5.22-3.12L495 394.69a5.91 5.91 0 0 1 10.42-5.57l8.82 16.51a5.91 5.91 0 0 1-5.21 8.69zM543.32 386.04l-2.65 18.53M540.68 410.48a5.91 5.91 0 0 1-5.86-6.74l2.65-18.53a5.91 5.91 0 0 1 11.7 1.67l-2.65 18.53a5.91 5.91 0 0 1-5.84 5.07zM569.16 406.76l-8.54 13.6M560.62 426.27a5.91 5.91 0 0 1-5-9l8.53-13.6a5.91 5.91 0 1 1 10 6.28l-8.53 13.6a5.9 5.9 0 0 1-5 2.72z" fill="#070707" p-id="2168"></path><path d="M771 497.71c13.08 54.39 11.31 103.81-4.81 105.34-19.35 1.84-37.49-37.11-50.58-91.51s-12.55-101.68 3.19-105.47 39.14 37.24 52.2 91.64z" fill="#FFFFFF" p-id="2169"></path><path d="M764.85 609c-26.26 0-44.34-51.93-55-96.1-9.36-38.89-18.29-106.38 7.56-112.59 22.51-5.41 46.86 44.2 59.32 96 11.35 47.19 11.76 90.69 1 105.77-3.66 5.13-8 6.55-11 6.83-0.6 0.09-1.25 0.09-1.88 0.09zM721 411.73a3.38 3.38 0 0 0-0.8 0.09c-7.63 1.84-13.76 36.27 1.17 98.34 15.83 65.83 33.76 88 44.27 87a3.94 3.94 0 0 0 2.49-1.94c7.45-10.44 8.42-49.26-2.86-96.14-14.18-58.96-35.71-87.35-44.27-87.35z" fill="" p-id="2170"></path><path d="M713.92 504.12s17.54 31 36.2 35.77a38 38 0 0 0 32.37-6.74s-36.4-103-36.16-106.16-31.43-22.43-31.43-22.43-9.9 50.3-7.9 54.78 6.92 44.78 6.92 44.78z" fill="#070707" p-id="2171"></path><path d="M729.522533 461.56128a18.43 9.89 77.25 1 0 19.292272-4.365395 18.43 9.89 77.25 1 0-19.292272 4.365395Z" fill="#FCFCFC" p-id="2172"></path><path d="M710.23 421.37a5.89 5.89 0 0 1-4.1-1.65l-8.13-7.84a5.91 5.91 0 1 1 8.19-8.51l8.14 7.84a5.91 5.91 0 0 1-4.1 10.16zM719.41 411.26a5.91 5.91 0 0 1-5.7-4.36l-4.5-16.62a5.91 5.91 0 0 1 11.4-3.09l4.5 16.62a5.91 5.91 0 0 1-5.71 7.45z" fill="#070707" p-id="2173"></path><path d="M730.17 415.69a5.91 5.91 0 0 1-5.53-8l4.94-13.26a5.91 5.91 0 1 1 11.07 4.13l-4.94 13.26a5.91 5.91 0 0 1-5.54 3.87z" fill="#070707" p-id="2174"></path><path d="M611.94 649.66s10.86 9.25 22.43 12.48c12.63 3.53 45.63 2.93 45.63 2.93s-27.8 80.73-49.16 114.24c-7.63 12-18.63 18.87-29.94 13.86s-14.34-94.59 11.04-143.51z" fill="#F23838" p-id="2175"></path><path d="M592.5 737.76s30.76-2.3 46.37 20.62C646 768.5 628.25 788.55 623 791s-11.9 7.2-20.19 2.36-8.87-20.41-9.58-31.13-0.73-24.47-0.73-24.47z" fill="#E54871" p-id="2176"></path><path d="M610 801.32a19.94 19.94 0 0 1-10.21-2.88c-10.59-6.18-11.63-22.37-12.39-34.19l-0.11-1.65c-0.72-10.78-0.73-24.28-0.73-24.85a5.91 5.91 0 0 1 5.47-5.89c1.4-0.1 34.37-2.26 51.7 23.19 1.9 2.7 3.82 7.52 1.88 14.75-2.92 10.87-14.3 23.83-20.17 26.54-0.66 0.3-1.35 0.65-2.06 1-3.23 1.66-7.86 3.98-13.38 3.98z m-11.57-57.6c0.07 4.92 0.24 12 0.65 18.1l0.11 1.67c0.52 8.13 1.4 21.74 6.56 24.74 4.17 2.44 7.4 1 12.31-1.44 0.84-0.42 1.65-0.83 2.43-1.19 2.49-1.27 11.78-11.06 13.78-19.18 0.52-2.11 0.43-3.67-0.26-4.65-9.81-14.44-26.82-17.48-35.55-18.05z" fill="" p-id="2177"></path><path d="M611.29 801a29.25 29.25 0 0 1-10.65-2.15c-3.78-1.47-6.69-5.32-8.91-11.78-8.44-24.52-8.45-95.56 16.85-138a5.91 5.91 0 0 1 8.57-1.74c0.12 0.09 11.86 8.62 23.85 11.61 13.67 3.42 52.45 3.29 52.84 3.29a5.91 5.91 0 0 1 5.36 8.38c-1.51 3.26-37.17 80.25-61.35 113.12-6.18 8.4-14.53 17.27-26.56 17.27z m-6.09-13.05c8.6 3.23 14.69 0.26 23.15-11.24C647.27 751 674.52 695.1 684.58 674c-12.89-0.18-35.71-0.89-46.45-3.58-8.78-2.2-17.13-6.66-22.38-9.87-9.8 19.23-16 46.36-17.12 75.66-1.2 30.86 3.71 48.98 6.58 51.73z m0.11 0.1z" fill="#070707" p-id="2178"></path><path d="M675.56 673.48c-11.68 0-23.38-0.46-30.68-1.85-17.48-3.32-33.83-14.2-34.52-14.66a5.91 5.91 0 1 1 6.58-9.81c0.31 0.21 15.17 10 30.14 12.86 15.93 3 59.25 1.08 63.7 0.29a5.91 5.91 0 0 1 2.07 11.63c-2.95 0.53-20.09 1.54-37.29 1.54z" fill="" p-id="2179"></path></svg>