<svg t="1668431553603" class="icon" viewBox="0 0 1024 1024" version="1.1" xmlns="http://www.w3.org/2000/svg" p-id="2883" width="64" height="64"><path d="M448 725.333333H170.666667v-85.333333h277.333333a149.333333 149.333333 0 1 1-139.861333 201.813333l79.914666-29.994666A64 64 0 1 0 448 725.333333zM213.333333 469.333333h576a149.333333 149.333333 0 1 1-139.861333 201.813334l79.914667-29.994667A64 64 0 1 0 789.333333 554.666667H213.333333a128 128 0 0 1 0-256h362.666667a64 64 0 1 0-59.946667-86.485334l-79.914666-29.952A149.376 149.376 0 0 1 725.333333 234.666667 149.333333 149.333333 0 0 1 576 384H213.333333a42.666667 42.666667 0 1 0 0 85.333333z" p-id="2884" fill="#4f46e5"></path></svg>